<svg xmlns="http://www.w3.org/2000/svg" xmlns:xlink="http://www.w3.org/1999/xlink" width="126.514" height="48" viewBox="0 0 126.514 48">
  <defs>
    <clipPath id="clip-path">
      <rect id="Rectángulo_9" data-name="Rectángulo 9" width="30.515" height="48" rx="4" fill="#fa6a14"/>
    </clipPath>
  </defs>
  <g id="Grupo_659" data-name="Grupo 659" transform="translate(-312 -48)">
    <text id="DESGUACE_PARÍS" data-name="DESGUACE
PARÍS" transform="translate(350.514 67.5)" fill="#fa6a14" font-size="16" font-family="Telegraf-SemiBold, Telegraf" font-weight="600"><tspan x="0" y="0">DESGUACE</tspan><tspan x="0" y="18">PARÍS</tspan></text>
    <g id="Grupo_612" data-name="Grupo 612" transform="translate(312 48)">
      <g id="Grupo_2" data-name="Grupo 2" clip-path="url(#clip-path)">
        <path id="Trazado_1" data-name="Trazado 1" d="M30.515,0H0V48H4.254q.276-.358.552-.715c.175-.225.373-.438.526-.677.2-.309.407-.606.627-.9a7.943,7.943,0,0,0,.783-1.25,2.1,2.1,0,0,1,.326-.522,1.8,1.8,0,0,0,.186-.288.38.38,0,0,0,.052-.264c-.034-.213-.091-.424-.107-.638A4.237,4.237,0,0,1,7.2,42c.012-.123.034-.247.039-.372,0-.079.009-.158.015-.247a.673.673,0,0,1,.155-.079,4.044,4.044,0,0,1,.544-.086,1.626,1.626,0,0,0,.467-.112.463.463,0,0,0,.242-.188,4.539,4.539,0,0,0,.289-.506c.121-.27.216-.552.328-.827.078-.19.163-.378.249-.565.138-.3.291-.6.416-.9.2-.5.428-.986.585-1.5.13-.425.262-.851.36-1.283a.861.861,0,0,1,.405-.606c-.22-.677-.409-1.354-.587-2.049l.243-.138c.221-.124.439-.253.663-.369a.787.787,0,0,0,.413-.7c.008-.1,0-.206,0-.309a1.5,1.5,0,0,1,.011-.24c.059-.335.132-.668.187-1,.08-.482.137-.968.23-1.447.035-.18.044-.361.076-.54a6.359,6.359,0,0,0,.111-.671,4.848,4.848,0,0,0,.083-.815.384.384,0,0,1,.017-.1,4.135,4.135,0,0,0,.119-.877.315.315,0,0,1,.016-.135,1.006,1.006,0,0,0,.052-.371c0-.068.016-.136.024-.2.015-.124.036-.248.044-.372.018-.306.071-.609.111-.913a1.715,1.715,0,0,0,.024-.238c0-.354.107-.7.077-1.055a.141.141,0,0,1,.011-.068,1.082,1.082,0,0,0,.056-.439.806.806,0,0,1,.016-.239,1.543,1.543,0,0,0,.053-.474.837.837,0,0,1,.023-.238,1.266,1.266,0,0,0,.044-.407,2.713,2.713,0,0,1,.02-.513,2.806,2.806,0,0,0,.052-.543.734.734,0,0,1,.012-.2,2.222,2.222,0,0,0,.059-.577,7.79,7.79,0,0,1,.085-.882,2.055,2.055,0,0,0,.049-.509c-.032-.493.094-.977.077-1.469a.228.228,0,0,1,.013-.1,1.137,1.137,0,0,0,.052-.44.766.766,0,0,1,.016-.238,1.667,1.667,0,0,0,.053-.543,1.889,1.889,0,0,1,.018-.41,2.14,2.14,0,0,0,.049-.509,1.992,1.992,0,0,1,.057-.611.715.715,0,0,0,.011-.2,6.262,6.262,0,0,1,.061-1.092,3.732,3.732,0,0,0,.015-.547c.013-.193.052-.384.061-.576.012-.251,0-.5.007-.755a.611.611,0,0,0-.1-.356,4.344,4.344,0,0,0-.315-.45A2.274,2.274,0,0,1,13.5,8.34a.551.551,0,0,1,.024-.616,1.3,1.3,0,0,0,.165-.374c.077-.239.147-.48.219-.72a.8.8,0,0,1,.406-.528,1.107,1.107,0,0,0,.118-.071.641.641,0,0,0,.313-.576c-.006-.309.009-.619,0-.927a.39.39,0,0,1,.23-.418,1.1,1.1,0,0,0,.208-.179c.049-.043.1-.084.146-.122.264.186.251.219.242.54a.587.587,0,0,1-.022.1,1.124,1.124,0,0,0,.2,1.059.888.888,0,0,1,.082.15c.074.129.142.263.228.383a8.018,8.018,0,0,1,.552.949,4.5,4.5,0,0,1,.392,1.057,2.1,2.1,0,0,1,.033.236.352.352,0,0,1-.133.335,1.226,1.226,0,0,1-.154.138,1.452,1.452,0,0,0-.622.918,1.148,1.148,0,0,1,.214.8c-.006.4,0,.8,0,1.2a.871.871,0,0,0,.013.273,1.582,1.582,0,0,1,.047.509c0,.3,0,.6.007.893a.769.769,0,0,0,.013.238,1.951,1.951,0,0,1,.054.577,1.194,1.194,0,0,0,.015.307,2.055,2.055,0,0,1,.054.612c0,.286,0,.572,0,.858a.757.757,0,0,0,.01.239,1.832,1.832,0,0,1,.054.611,2.459,2.459,0,0,0,.066.575,5.683,5.683,0,0,1,.15,1.114c.012.283.054.566.081.849.017.18.052.36.055.542a.36.36,0,0,0,.019.134,1.11,1.11,0,0,1,.047.406,2.874,2.874,0,0,0,.061.782.786.786,0,0,1,.008.205.709.709,0,0,0,.013.2,1.725,1.725,0,0,1,.058.542.666.666,0,0,0,.014.17,8.848,8.848,0,0,1,.113.948c.061.3.023.619.095.914.077.315.026.635.111.949a4.855,4.855,0,0,1,.085.813.318.318,0,0,0,.016.1,1.026,1.026,0,0,1,.051.405.557.557,0,0,0,.011.17,1.661,1.661,0,0,1,.059.542.722.722,0,0,0,.014.17c.114.408.114.832.192,1.245.039.212.063.428.1.641s.09.447.106.672a5.483,5.483,0,0,0,.073.61,6.592,6.592,0,0,0,.369,1.312.763.763,0,0,0,.534.5c.123.03.243.072.365.1.158.043.185.076.192.235a.47.47,0,0,1-.076.328.589.589,0,0,0-.139.376.355.355,0,0,1-.048.127,2.562,2.562,0,0,0-.146.766.707.707,0,0,0,.024.2c.051.292.142.574.22.859.04.143.069.289.119.428.185.515.386,1.026.565,1.544a6.953,6.953,0,0,0,.455,1.109.814.814,0,0,1,.058.124,12.376,12.376,0,0,0,.791,1.749,5.3,5.3,0,0,0,.389.606.6.6,0,0,0,.534.266,3.714,3.714,0,0,1,.416.006.249.249,0,0,1,.234.217,6.854,6.854,0,0,1,.082.747,2.174,2.174,0,0,0,.008.547.975.975,0,0,1,0,.571.117.117,0,0,0,0,.068,1.857,1.857,0,0,0,.272.765c.283.374.55.76.817,1.145.15.216.284.443.428.663a11.331,11.331,0,0,0,.735,1.035,4.463,4.463,0,0,1,.522.763c.058.111.137.212.195.323,0,0,.006.006.008.01h4.4Z" transform="translate(0 0)" fill="#fa6a14"/>
        <path id="Trazado_2" data-name="Trazado 2" d="M27.423,66.709c-.119-.627-.276-1.243-.453-1.856a3.619,3.619,0,0,1-.183-1,.562.562,0,0,0-.108-.32.278.278,0,0,0-.194-.133,5.8,5.8,0,0,0-.616-.069c-.612-.01-1.225,0-1.838-.008a.9.9,0,0,0-.486.12c-.04.166-.07.323-.117.475a1.557,1.557,0,0,1-.221.6.209.209,0,0,0-.028.1c-.027.168-.045.338-.079.5a5.715,5.715,0,0,1-.413,1.3,1.446,1.446,0,0,0-.148.486,5.093,5.093,0,0,0-.063.506,8.713,8.713,0,0,0-.271.841,3.788,3.788,0,0,0-.22.61,1.057,1.057,0,0,1-.122.24,1.576,1.576,0,0,1,.105.149.359.359,0,0,0,.314.181c.046,0,.093,0,.139,0l3.989,0a.738.738,0,0,0,.241-.015,1.448,1.448,0,0,1,.48-.046c.232,0,.462,0,.694,0a.307.307,0,0,0,.316-.178,9.8,9.8,0,0,0-.338-1.173,9.445,9.445,0,0,1-.381-1.313" transform="translate(-9.725 -28.163)" fill="#fa6a14"/>
        <path id="Trazado_3" data-name="Trazado 3" d="M26.941,83.106a5.9,5.9,0,0,1-.6-.338,2.423,2.423,0,0,0-.762-.308,3.9,3.9,0,0,1-.567-.143,3.724,3.724,0,0,0-.759-.213,6.22,6.22,0,0,0-1.2-.119c-.358.006-.716,0-1.075,0a1.057,1.057,0,0,0-.242.009,8.752,8.752,0,0,0-.937.229c-.217.078-.433.159-.656.215a4.66,4.66,0,0,0-1.115.445c-.414.228-.8.492-1.2.741a1,1,0,0,0-.167.121,5.368,5.368,0,0,1-.594.467,1.374,1.374,0,0,0-.265.25H28.828c-.264-.2-.524-.4-.78-.605a5.951,5.951,0,0,0-1.108-.754" transform="translate(-7.474 -36.466)" fill="#fa6a14"/>
      </g>
    </g>
  </g>
</svg>
