<svg width="84" height="32" viewBox="0 0 84 32" fill="none" xmlns="http://www.w3.org/2000/svg">
<g clip-path="url(#clip0_246_847)">
<path fill-rule="evenodd" clip-rule="evenodd" d="M0.5 0H11.1801C13.6882 0.133699 16.1043 0.689385 18.4243 1.66706C23.3275 3.88145 26.1324 7.66262 26.843 13.0189C27.1523 15.53 27.0562 18.0243 26.5462 20.5061C25.3047 25.8707 22.0568 29.3762 16.794 31.0181C15.5609 31.3858 14.2985 31.6114 13.011 31.6866L0.50418 31.6992V0H0.5Z" fill="#222422"/>
<path fill-rule="evenodd" clip-rule="evenodd" d="M55.1924 9.41309L35.9723 31.699H26.6005L55.1924 9.41309Z" fill="#0F7A3D"/>
<path d="M55.1924 9.41309L35.9723 31.699H26.6005L55.1924 9.41309Z" stroke="#0F7A3D" stroke-width="0.22" stroke-miterlimit="22.93"/>
<path fill-rule="evenodd" clip-rule="evenodd" d="M55.1924 9.41309L61.8471 17.9991L60.5889 26.3469L54.0554 17.8612L35.9723 31.699L55.1924 9.41309Z" fill="#195E2F"/>
<path d="M55.1924 9.41309L61.8471 17.9991L60.5889 26.3469L54.0554 17.8612L35.9723 31.699L55.1924 9.41309Z" stroke="#195E2F" stroke-width="0.22" stroke-miterlimit="22.93"/>
<path fill-rule="evenodd" clip-rule="evenodd" d="M45.4737 0H56.5008L61.4124 17.4394L55.1924 9.41324L45.4737 16.9881V0Z" fill="#222422"/>
<path fill-rule="evenodd" clip-rule="evenodd" d="M78.5633 15.3714V31.6994H70.688V18.6178L77.1546 13.6709L78.5633 15.3714Z" fill="#222422"/>
<path fill-rule="evenodd" clip-rule="evenodd" d="M66.8339 0H78.5633V4.74213L70.1446 4.50816L73.4552 8.94112L70.688 11.1012V9.16673L70.1362 11.5315L62.2233 17.7068L66.8339 0Z" fill="#222422"/>
<path fill-rule="evenodd" clip-rule="evenodd" d="M83.4457 4.87548L80.5029 17.698L77.1546 13.6704L60.5889 26.3467L73.4552 8.94077L70.1446 4.50781L83.4457 4.87548Z" fill="#195E2F"/>
<path d="M83.4457 4.87548L80.5029 17.698L77.1546 13.6704L60.5889 26.3467L73.4552 8.94077L70.1446 4.50781L83.4457 4.87548Z" stroke="#195E2F" stroke-width="0.22" stroke-miterlimit="22.93"/>
<path fill-rule="evenodd" clip-rule="evenodd" d="M73.4552 8.94141L60.5889 26.3473L61.8471 17.9995L73.4552 8.94141Z" fill="#0F7A3D"/>
<path d="M73.4552 8.94141L60.5889 26.3473L61.8471 17.9995L73.4552 8.94141Z" stroke="#0F7A3D" stroke-width="0.22" stroke-miterlimit="22.93"/>
<path fill-rule="evenodd" clip-rule="evenodd" d="M54.6741 18.668L60.5889 26.3473L68.0044 20.6735L65.4295 31.6994H58.5825L54.6741 18.668Z" fill="#222422"/>
<path fill-rule="evenodd" clip-rule="evenodd" d="M53.349 18.4004V31.6993H45.4737V24.4294L53.349 18.4004Z" fill="#222422"/>
<path fill-rule="evenodd" clip-rule="evenodd" d="M44.2531 25.361V31.6992H35.9723L44.2531 25.361ZM35.9723 0H44.2531V17.9407L35.9723 24.3959V18.7262H28.0928C28.3269 16.7792 28.3269 14.8197 28.0719 12.8602C28.0259 12.505 27.9716 12.1541 27.9047 11.8115H35.9681V0H35.9723Z" fill="#222422"/>
<path fill-rule="evenodd" clip-rule="evenodd" d="M18.5998 31.6992H26.6005V24.212C25.0037 27.6924 22.3243 30.2076 18.5998 31.6992ZM26.6005 0H17.5506C18.0063 0.158767 18.4535 0.330069 18.9008 0.518083H18.9175L18.9301 0.530618C22.5082 2.14754 25.0748 4.56248 26.6005 7.73783V0Z" fill="#222422"/>
<path fill-rule="evenodd" clip-rule="evenodd" d="M7.95312 17.5771C8.19138 17.5855 8.15376 17.598 8.25827 17.7442C8.37113 17.903 8.35023 17.8654 8.29171 18.0827C8.53833 17.9615 8.47981 18.0116 8.61775 18.1203C8.62611 17.8612 8.58431 17.8737 8.84348 17.8821C8.93962 18.0785 8.902 18.1035 9.0274 18.1579C9.21969 18.2414 9.24477 18.1955 9.17789 18.4378C9.30747 18.3501 9.20297 18.2748 9.32001 18.279C9.34091 18.3709 9.39525 18.4294 9.44123 18.5088C9.73802 18.9893 9.6586 18.6174 10.3859 19.0018C10.4737 19.0478 10.5573 19.0603 10.5991 19.1481C10.6953 19.3528 10.6827 19.5032 10.5824 19.6912H10.7203C10.7036 19.85 10.5782 20.0923 10.5197 20.2469C10.3483 20.7107 10.4988 20.46 10.5197 20.8109C9.94284 20.9238 10.3567 20.9154 9.89686 20.7316L8.52997 20.3722C8.24991 20.3514 8.17466 20.5477 8.11196 20.7817C8.00328 20.7483 7.99074 20.6772 7.89878 20.6104C7.92386 20.719 7.97402 20.7232 7.9991 20.8318C7.73157 20.6396 7.78173 20.7483 7.76919 21.1536C7.60617 21.2329 7.54765 21.2872 7.38463 21.1953C7.12546 21.3917 6.89137 21.0867 6.74925 20.8862C6.61967 20.7023 6.49427 20.5519 6.36886 20.3681C6.14314 20.0422 5.94667 19.8834 5.93831 19.4447C5.93831 19.2943 6.00101 19.2024 6.00937 19.0394C6.22256 19.0478 6.1515 18.9308 6.15986 18.6885C6.465 18.6174 6.36468 18.3626 6.37722 17.9573C6.69909 17.8027 6.51517 17.7818 6.60295 17.5479C6.63221 17.4727 6.65311 17.3933 6.72835 17.3974C6.72835 17.6857 6.86211 18.1996 7.0753 18.3668L7.45569 18.0952C7.51421 18.0534 7.52675 18.0367 7.58109 18.0033C7.23414 17.4434 7.29684 17.6607 7.72321 17.5311C7.82354 17.5019 7.92386 17.4601 8.01164 17.4434C7.9782 17.4977 7.96984 17.5061 7.95312 17.5771ZM8.12032 15.9685C7.96984 16.0312 7.71485 16.1566 7.9782 16.1566C7.95312 16.2526 7.79428 16.3613 7.75247 16.4365C7.37209 16.2735 7.46405 16.3571 7.17144 16.5368C7.1589 16.8668 7.0335 16.5493 7.23832 16.871C7.11292 16.8376 7.01678 16.8334 6.91228 16.7791C6.88301 16.8794 6.86629 16.8543 6.84957 16.9671C6.57787 16.9587 6.67819 16.9211 6.36468 16.8376C6.26854 17.1468 6.00519 17.2345 5.72095 17.2261C5.78365 17.0172 6.1724 16.9337 6.01773 16.5785C6.08462 16.5451 6.2351 16.2527 6.43574 16.2903C6.91646 16.378 7.07112 15.7346 7.53929 16.0061C7.80264 15.9811 7.75247 15.91 8.12032 15.9727V15.9685ZM11.9786 16.7916C11.8113 16.7874 11.7863 16.8083 11.803 16.3487C11.9033 16.3487 11.9535 16.332 12.0245 16.3028C12.0538 16.1942 12.0496 16.0855 12.0956 15.9853C12.1165 15.9393 12.129 15.91 12.1458 15.8892C12.1667 15.8892 12.1876 15.8892 12.2085 15.8892C12.5429 15.8683 12.3715 15.7805 12.7937 16.0061H12.7979C12.6306 16.2234 12.4843 16.4031 12.4384 16.4365C12.3589 16.4992 12.0454 16.7958 11.9744 16.7916H11.9786ZM9.73802 16.683C9.63352 16.6245 9.65442 16.6412 9.63352 16.4908C9.55828 16.0103 9.67114 16.4908 9.25313 16.4741C9.29911 16.3279 9.43705 16.2234 9.48721 16.0437C9.39943 16.0312 9.26985 15.9727 9.21969 15.8975C9.6377 15.7931 8.99814 15.7053 8.96052 15.534C9.10265 15.5507 9.28657 15.605 9.42869 15.6301C9.5541 15.651 9.62516 15.651 9.66696 15.6719C9.68368 15.7137 9.7004 15.7513 9.71712 15.7972C9.7422 15.8557 9.75474 15.8683 9.77146 15.885C9.86342 16.19 9.95539 16.2735 9.7422 16.6872L9.73802 16.683ZM10.8625 17.1092L10.4904 17.176C10.4946 17.0005 10.4904 17.0172 10.6994 16.9462C10.7496 17.0047 10.8039 17.059 10.8625 17.1092ZM11.92 16.9253L11.4101 17.0131C11.3599 16.9671 11.3223 16.8961 11.3014 16.7958C11.5313 16.7666 11.6483 16.7457 11.874 16.8877C11.9242 16.9211 11.895 16.9003 11.92 16.9253ZM8.95216 14.9031C8.95216 14.782 8.93544 14.8154 8.93126 14.7109C8.92708 14.7151 8.9229 14.7193 8.91872 14.7276L8.8184 14.7903C8.8184 14.6023 8.76406 14.7026 8.86438 14.5271C8.91872 14.431 8.9438 14.3892 8.97306 14.2764C9.03576 14.3934 9.10265 14.5229 9.11101 14.7151C9.11101 14.7402 9.11937 14.7611 9.13191 14.782C9.08175 14.8196 9.01904 14.8613 8.95216 14.9031ZM15.6738 14.5939C15.6738 14.7026 15.7281 14.7235 15.7365 14.8237C15.749 14.9198 15.6905 14.9491 15.6821 15.087C15.5484 15.0452 15.5902 14.9909 15.4439 14.8864C15.5776 14.6984 15.5609 14.7652 15.6278 14.5814C15.6487 14.5271 15.6111 14.5396 15.7281 14.5146C15.7114 14.5355 15.6696 14.5814 15.6696 14.5939H15.6738ZM7.58945 21.751C7.31356 21.751 7.39717 21.7844 7.21742 21.492C7.67305 21.4669 7.45987 21.4502 7.58945 21.751ZM8.55087 16.3111C8.45891 16.3111 8.22483 16.3362 8.13704 16.3529C8.15376 16.2067 8.1872 16.215 8.31261 16.1983C8.50489 16.1774 8.52161 16.1816 8.55087 16.3111ZM9.16953 17.3724C8.88528 17.1677 8.77242 17.1551 8.65956 17.0548C8.9647 17.0674 8.95216 17.1008 9.08593 17.2387C9.14863 17.3055 9.14863 17.2805 9.16953 17.3724ZM9.69622 17.1718C9.64606 17.1718 9.26149 17.1092 9.26149 17.0465C9.6795 17.0632 9.66278 17.0172 9.69622 17.1718ZM11.9493 16.1566C11.92 16.2526 11.8197 16.2861 11.7236 16.3111C11.6985 16.2652 11.7612 16.0939 11.9493 16.1566ZM10.1309 17.2136C10.0515 17.1927 10.0473 17.1802 9.97211 17.1509C9.8676 17.1133 9.89268 17.1509 9.83416 17.0674C10.0181 17.0757 10.0933 17.0256 10.1309 17.2136ZM8.47981 15.8683C8.34605 15.768 8.57177 15.5424 8.57177 15.5424C8.66792 15.5424 8.58013 15.8014 8.47981 15.8683ZM10.8666 7.33242V7.26557C10.9544 7.25304 11.0422 7.24468 11.1258 7.23633C11.1258 7.24051 11.1258 7.24886 11.1175 7.25722C11.0882 7.32825 11.1384 7.34078 10.8666 7.33242ZM8.15376 17.552C8.12868 17.5019 8.13286 17.5186 8.12868 17.4434C8.31679 17.4518 8.28335 17.5228 8.15376 17.552ZM10.5615 9.10394C10.5615 9.28359 10.5406 9.16243 10.4946 9.23763C10.6117 9.35462 10.5113 9.30448 10.5615 9.45489C10.9879 9.54681 10.8917 9.73065 11.2178 9.61366C11.6567 9.45907 11.7152 9.81003 11.8782 9.43818C11.5731 9.1875 11.7988 8.94935 11.5689 8.88667C11.4937 8.97859 11.548 8.95352 11.502 9.07887C11.3474 9.06633 11.385 9.07051 11.3432 8.94935C11.0798 8.93681 10.5573 8.56914 10.5657 9.09976L10.5615 9.10394ZM10.6075 9.34626C10.6576 9.16243 10.8541 9.21257 11.0422 9.25852C11.0255 9.38387 11.0004 9.3964 10.875 9.39222C10.783 9.39222 10.6911 9.37133 10.6075 9.34626ZM18.7628 12.3461L18.8841 12.2375C18.8297 11.9116 18.6291 11.9743 18.512 11.92C18.395 11.8657 18.512 11.8698 18.3448 11.8072C18.3072 12.0537 18.3281 12.0077 18.4075 12.1038C18.5079 12.2333 18.5371 12.3127 18.7628 12.3461ZM12.3297 8.92846L12.4007 8.77387C11.8699 8.66524 12.2126 9.36715 12.3757 9.19585C12.4927 9.07051 12.3548 8.9577 12.3339 8.92846H12.3297ZM12.1416 9.71394C12.2544 9.85181 12.3171 9.81421 12.4007 9.71811C12.3631 9.63455 12.3715 9.65127 12.3046 9.58859C12.2001 9.60531 12.1667 9.60531 12.1416 9.71394ZM12.7686 8.63181L12.7561 8.45633L12.6306 8.44797C12.5721 8.61092 12.6181 8.61092 12.7686 8.63181ZM12.2503 8.35606C12.2586 8.45215 12.2503 8.51482 12.3673 8.47304C12.4425 8.4438 12.4969 8.39366 12.5261 8.30592C12.4342 8.18893 12.2962 8.1388 12.1876 8.25996C12.2126 8.35606 12.1667 8.25996 12.2503 8.35606ZM14.2651 10.395C14.3194 10.2362 14.3027 10.278 14.194 10.2404C14.1522 10.3239 14.1229 10.3783 14.2651 10.395ZM10.5155 8.12208C10.5155 8.12208 10.4863 8.18058 10.5949 8.16386C10.7454 8.14297 10.6911 7.98838 10.5155 8.12208ZM11.7152 8.39366C11.8406 8.33934 11.7946 8.39366 11.8113 8.26414L11.64 8.23489C11.6191 8.11791 11.6232 8.12626 11.502 8.09284L11.4644 8.35606L11.7152 8.39366ZM12.6557 8.20565C12.7268 8.32681 12.7184 8.33934 12.8438 8.25578C12.8856 8.09284 12.6808 8.15551 12.6557 8.20565ZM12.6223 7.85051C12.6432 7.95914 12.6432 7.93407 12.7268 7.89647C12.6975 7.8129 12.731 7.79201 12.6223 7.85051ZM13.5544 11.0969C13.3956 11.0509 13.404 11.076 13.3705 11.2139C13.4917 11.2306 13.5294 11.193 13.5544 11.0969ZM19.6156 15.9476C19.6616 16.0396 19.7076 16.1315 19.7494 16.2234C19.8079 16.215 19.8664 16.2109 19.9458 16.2234L20.0336 16.7582C20.2008 16.8334 20.1381 16.8125 20.3638 16.825C20.3889 16.683 20.368 16.4992 20.3722 16.3362C20.3805 16.0521 20.3805 16.1148 20.1548 16.0396C20.1297 15.8892 20.0629 15.7596 20.0127 15.5967C19.7452 15.5424 19.7703 15.5424 19.6825 15.7805C19.6574 15.8474 19.6365 15.9017 19.6198 15.9435L19.6156 15.9476ZM15.5902 13.6163C15.6152 13.6455 15.6152 13.6664 15.6194 13.7291C15.6278 13.704 15.6361 13.6664 15.6445 13.6205C15.6278 13.6205 15.6069 13.6205 15.5902 13.6205V13.6163ZM12.2419 24.0197C12.3589 23.9947 12.6432 23.8484 12.5387 24.003C12.7686 23.9905 12.5554 23.8735 13.0194 24.0573C13.1532 24.1075 13.1573 24.1451 13.2409 24.2746C13.3496 24.2244 13.4249 24.2579 13.5252 24.1827C13.7217 24.0281 13.7008 24.1242 14.1647 24.074C14.4239 24.0448 14.4532 23.9487 14.5869 24.2119C14.6371 24.191 14.6747 24.1827 14.7249 24.1618C14.6496 24.354 14.4323 24.3164 14.2818 24.3122C14.0979 24.3038 13.822 24.425 13.6381 24.4459C13.3914 24.4751 13.1908 24.4918 12.9442 24.5253C12.4676 24.5963 12.2503 24.684 11.7361 24.5879L11.3432 24.425C11.4059 24.425 11.502 24.4166 11.6149 24.4083C11.6483 24.3749 11.6149 24.354 11.5814 24.3247H11.5689C11.2763 24.2788 10.4904 24.0907 10.6869 24.379C10.4319 24.3707 10.1811 24.308 9.72966 24.2913C9.89686 24.3749 10.0557 24.4375 10.248 24.471C10.4654 24.5086 10.6451 24.5545 10.8416 24.6047C10.7914 24.6339 10.7203 24.613 10.6493 24.6005C10.1644 24.5086 10.0014 24.5211 9.57082 24.2788C9.54156 24.2621 9.17789 24.166 9.13191 24.1618C9.15281 23.8317 9.48721 24.1576 9.44123 23.8986C9.5959 23.9027 9.71294 23.8526 9.85506 23.8568C10.0348 23.8651 10.1393 23.9236 10.3441 23.9278L10.8625 23.9445C11.0046 23.9487 11.0171 23.9069 11.1258 23.8902C11.222 23.8735 11.2888 23.9278 11.3975 23.9487C11.548 23.9821 11.8406 23.8986 12.012 23.9027C12.1332 23.9069 12.1165 23.932 12.2586 23.9403C12.1959 24.0155 12.1583 24.0448 12.2335 24.0197H12.2419ZM8.37531 7.92571C8.37531 8.02599 8.30007 7.97585 8.25409 8.11373C8.40875 8.03852 8.31261 8.07612 8.47563 8.09284C8.42547 8.16386 8.37949 8.22654 8.30007 8.27249C8.1454 8.36859 7.89878 8.39784 7.8737 8.86161C8.00328 8.78222 8.02418 8.7488 8.13704 8.66106C8.37949 8.46887 8.47563 8.43544 8.58849 8.18058C8.7139 7.89229 8.68882 7.94243 8.78496 7.93825C8.73062 8.01763 8.72644 7.97167 8.69718 8.07195C8.79332 8.02599 8.7975 7.99256 8.94798 7.99674C8.88946 8.10955 8.83512 8.1388 8.80168 8.20982C8.98142 8.21818 8.97724 8.16386 9.15699 8.16386C9.32419 8.16386 9.37017 8.20147 9.5123 8.20565C9.54574 8.36859 9.63352 8.40202 9.66278 8.56496C9.44541 8.5775 9.45795 8.60674 9.44123 8.66524C9.37017 8.64434 9.22387 8.55243 9.01068 8.76133C8.87274 8.94935 8.65956 9.434 8.40457 9.36715C8.55087 9.16243 8.73898 9.07051 8.49653 9.12483C8.55923 9.04126 8.94798 8.6527 9.06084 8.62345V8.73208C9.01904 8.87414 8.85184 9.0538 8.85602 9.18332C8.85602 9.27941 8.90618 9.39222 8.93962 9.51339L8.95216 9.50503C9.32419 9.67633 9.06503 9.48832 9.32001 9.41729C9.49976 9.36716 9.39943 9.48414 9.57082 9.32537C9.6586 9.36715 9.57082 9.39222 9.95539 9.42983C10.3358 9.44654 10.0473 9.42565 10.3358 9.5301C10.4277 9.56352 10.5155 9.56352 10.6242 9.59277L10.5657 9.79332C10.712 9.82257 10.8917 9.83092 11.0213 9.86435C11.2178 9.91448 11.0924 10.0106 11.3181 10.0607C11.3766 9.74736 11.3306 9.70558 11.6734 9.84764C11.8239 9.91031 12.0538 9.93538 12.1834 9.89359C12.2335 9.86853 12.1123 9.8351 12.3088 9.86853L12.338 10.0064C12.4634 10.0148 12.5972 9.82674 12.6348 9.73483C12.6097 9.65544 12.5721 9.60948 12.522 9.51339C12.384 9.23763 12.5387 9.21674 12.6265 9.29613C12.802 9.45489 12.6933 9.62202 12.6892 9.64291C12.848 9.74736 12.848 9.67633 12.894 9.89777L13.0821 9.88942L13.1155 10.1067C13.2744 10.1568 13.3538 10.0565 13.3956 9.9312C13.4667 9.71394 13.4207 9.69305 13.2827 9.62202L13.1114 9.48832C13.1782 9.32537 13.1866 9.41729 13.0445 9.3212C13.0445 9.19585 13.1072 9.0914 13.1573 9.01202C13.2326 8.89921 13.2535 8.90339 13.4207 8.94935C13.3496 9.08722 13.2368 8.97859 13.312 9.25017C13.3371 9.33791 13.4165 9.55517 13.5419 9.37969C13.5085 9.31284 13.5252 9.17914 13.5419 9.07887C13.6297 9.02037 13.6381 9.00366 13.776 8.99113C13.8429 9.06633 13.8387 8.84907 13.8094 9.37133C14.2358 9.434 14.0352 9.33373 14.1856 9.1875C14.2609 9.23346 14.2734 9.27942 14.311 9.37551C14.5451 9.97716 14.6329 9.24181 14.658 9.82257C14.8503 9.86017 14.7082 9.83092 14.959 9.98969C14.8127 10.349 15.1596 10.3741 15.4982 10.7417L15.3519 11.0676C15.2056 11.0175 15.2641 10.9465 15.1763 10.771C14.7959 10.7334 15.2098 11.1512 15.239 11.2724C15.5442 11.6317 14.8377 11.452 14.6998 11.3685C14.5786 11.2933 14.6078 11.2431 14.5284 11.147C14.3528 10.9381 14.3319 10.9005 13.9892 10.9339C14.0561 10.7793 14.0561 10.7961 14.1606 10.6916L14.3696 10.725C14.5869 10.5161 14.6538 10.7 14.4782 10.3239C14.3779 10.1735 14.2442 9.95209 14.1397 9.75154C13.9516 9.73901 13.9975 9.81839 13.8471 9.75154C13.7049 9.68469 13.7467 9.67216 13.5544 9.68469C13.521 9.84764 13.6172 9.85181 13.7175 9.95209C13.7091 10.0064 13.6548 10.3323 13.6381 10.3699C13.5879 10.4785 13.4834 10.4952 13.4625 10.6582C13.5419 10.725 13.6799 10.7877 13.7258 10.9214C13.5753 10.9799 13.5963 10.8963 13.4499 10.8629L13.3078 11.0091C13.195 10.959 13.1615 10.8546 13.1532 10.7501C12.8146 10.8086 12.8313 10.8963 12.5721 11.1136C12.4551 11.2097 12.3046 11.2431 12.267 11.4938C12.2294 11.7278 12.1792 11.8907 12.3673 12.0202L12.777 11.686C12.9943 11.7487 13.1323 12.0202 13.195 12.2083L13.3371 12.4004C13.5962 12.5425 13.266 13.0021 13.6422 13.0105C13.7217 12.7848 13.5586 12.7431 13.7635 12.5592C13.868 12.4673 13.9766 12.4046 14.0101 12.2333C14.0728 11.8824 13.7844 12.1581 14.0352 11.31L14.4615 11.3768L14.4824 11.452L14.6204 11.6526C14.8628 11.7194 14.7374 11.92 14.8419 12.0954C15.0049 12.2291 15.1178 11.9367 15.2432 11.9033C15.3728 12.0202 15.3895 12.2041 15.4271 12.367C15.5818 12.9979 15.8744 12.9854 15.9329 13.1859C16.0123 13.4491 15.8911 13.5035 15.8744 13.7291C16.0291 13.8461 16.1921 13.9463 16.1837 14.1761C16.0416 14.2096 15.9329 14.2513 15.7866 14.2263C15.7281 14.055 15.7156 14.0424 15.6696 14.0257C15.6947 14.2346 15.7323 14.5229 15.8033 14.5981C15.841 14.6399 16.075 14.7151 16.1419 14.736L16.4429 13.7834C16.5808 13.3572 16.4429 13.14 16.4596 12.7222C16.5516 12.835 16.585 12.8768 16.7522 12.9227C16.7982 12.8391 16.8734 12.7639 16.8985 12.6804C16.8358 12.6428 16.8066 12.6135 16.7355 12.5926C16.8149 12.4924 16.8567 12.5634 16.9487 12.484C16.9779 12.4589 17.0448 12.342 17.0741 12.3044C17.6091 12.3252 17.5924 12.3211 18.0606 12.2291C18.0899 12.3879 18.1317 12.3921 18.0522 12.5049C17.931 12.6762 17.8516 12.6971 17.9812 12.8851C18.1776 13.1776 18.1442 13.1859 18.4493 13.399L19.0973 13.9296C19.1432 13.9714 19.1809 13.9965 19.2185 14.0132C19.2185 14.0048 19.2185 13.9965 19.2185 13.9881C19.277 13.9463 19.3272 13.9296 19.3815 13.8837C19.4024 13.6288 19.231 13.5912 19.4066 13.4742C19.6323 13.5536 19.4735 13.7792 19.5822 14.0048C19.6449 14.1344 19.7744 14.3307 19.6616 14.548L19.5027 14.5647L19.4944 14.502C19.3439 14.4394 19.1558 14.3057 19.022 14.2889C19.0095 14.6608 19.1391 14.853 19.2645 15.1747C19.2895 15.2416 19.3188 15.3042 19.3439 15.3669C19.4442 15.4003 19.4484 15.4296 19.5947 15.4379C19.6908 14.9491 19.5612 15.1162 19.5027 14.8321C19.7744 14.6399 19.7159 14.8864 19.8371 14.4435C19.8957 14.2221 19.9667 14.3265 20.0043 13.8377C19.9416 13.775 19.8371 13.7333 19.8037 13.5912C19.7661 13.2611 19.741 13.3405 19.7953 12.9728C19.8497 12.6135 19.7744 12.6386 19.6908 12.3837C19.5612 11.9785 18.8088 10.6749 18.4702 10.3532C17.4252 9.35044 17.9895 10.5579 18.1108 10.7334C18.1902 10.8462 18.2403 10.8504 18.2612 11.0091C18.1567 11.0593 18.0815 11.1345 17.9477 11.1721C17.7763 11.218 17.7053 11.1428 17.6342 11.3183C17.5757 11.4061 17.5381 11.427 17.4336 11.4687C17.2455 11.4687 17.2329 11.6359 17.1284 11.8239C17.0323 11.9952 17.003 12.1498 16.9069 12.2876C16.7522 12.2584 16.7857 12.1707 16.7146 12.0954L16.6226 12.0077C16.5892 11.8489 16.4805 11.6651 16.3635 11.5648L16.4011 11.3141L16.2966 11.1846C15.9622 10.5579 16.7731 10.42 16.1628 10.3783C16.0374 10.0356 16.2882 10.2863 16.2924 10.0691C16.2924 9.95627 16.2339 9.97298 16.0082 9.92284C16.0082 9.81839 16.0291 9.7014 16.0291 9.63037C15.9329 9.58024 15.8911 9.50503 15.8619 9.41311C15.8284 9.22928 15.6905 8.98695 15.4982 8.88667C15.3143 8.79058 14.7416 8.77387 14.7667 8.59839L14.7918 8.50229C14.8336 8.31845 14.6789 8.38948 14.6789 8.19311L14.9799 8.23071C15.0175 8.09284 14.9799 8.13462 15.0551 8.03434C15.1136 7.95496 15.1303 8.02181 15.1178 7.85469C14.6455 7.75023 14.4741 7.90482 14.3612 7.92153C14.2358 7.93825 14.2107 7.87558 14.1104 7.92571C14.0979 8.08448 14.1104 7.97585 14.2483 8.06777C14.2149 8.20147 14.0895 8.2516 13.985 8.24325L13.9934 8.33099C14.1104 8.36441 14.0853 8.37695 14.0184 8.46887C13.8471 8.45215 13.9683 8.46886 13.9223 8.41037C13.7008 8.36441 13.3162 8.34352 13.2242 8.26832C13.4249 8.19311 13.4081 8.1764 13.6297 8.20565C13.6506 7.94243 13.521 8.10955 13.7175 7.92989C13.7091 7.80873 13.7049 7.87558 13.6757 7.76695C13.7467 7.69592 13.7509 7.74188 13.8053 7.65832C13.7802 7.58311 13.7426 7.59982 13.6966 7.51626C13.6506 7.51626 13.6046 7.51626 13.5963 7.52462C13.2953 7.5079 13.3538 7.47866 13.3036 7.45359C13.22 7.41181 13.2284 7.43688 13.1364 7.42434C13.0027 7.40345 13.057 7.37421 12.6181 7.32407C12.4342 7.30318 12.3924 7.26975 12.3757 7.24886C12.3422 7.24886 12.3088 7.24051 12.2712 7.24051L12.2461 7.24886L11.9535 7.30736C11.9786 7.38256 12.012 7.36167 12.058 7.3951C11.6107 7.41599 12.0204 7.35331 11.3892 7.44105C10.758 7.52879 11.1216 7.47866 10.7162 7.45777C10.6994 7.40763 10.7036 7.47866 10.7162 7.42852L10.7412 7.37838L10.1059 7.46195C9.7004 7.47448 9.89686 7.52044 9.64188 7.52044C9.61262 7.52044 9.58754 7.52044 9.56246 7.52044C9.15281 7.62907 8.74734 7.76695 8.36695 7.92153L8.37531 7.92571Z" fill="#4D4D4D"/>
<path fill-rule="evenodd" clip-rule="evenodd" d="M10.5573 9.10781C10.5573 9.28747 10.5364 9.16631 10.4904 9.24151C10.6075 9.3585 10.5071 9.30836 10.5573 9.45877C10.9837 9.55069 10.8875 9.73453 11.2136 9.61754C11.6525 9.46295 11.711 9.81391 11.874 9.44206C11.5689 9.19137 11.7946 8.95322 11.5647 8.89055C11.4895 8.98247 11.5438 8.9574 11.4978 9.08274C11.3432 9.07021 11.3808 9.07439 11.339 8.95322C11.0756 8.94069 10.5531 8.57302 10.5615 9.10363M10.6075 9.34596C10.6576 9.16213 10.8541 9.21226 11.0422 9.25822C11.0255 9.38357 11.0004 9.3961 10.875 9.39192C10.783 9.39192 10.6911 9.37103 10.6075 9.34596ZM19.3773 13.8917C19.323 13.9377 19.2728 13.9586 19.2143 13.9962C19.2268 14.109 19.1934 14.2845 19.1934 14.2886C19.2226 14.3931 19.3397 14.3054 19.4693 14.343L19.4985 14.5728L19.6574 14.556C19.7702 14.3346 19.6407 14.1382 19.578 14.0129C19.4693 13.7873 19.6281 13.5617 19.4024 13.4823C19.2268 13.5993 19.4024 13.6369 19.3773 13.8917ZM18.7628 12.3458L18.8841 12.2372C18.8297 11.9113 18.6291 11.974 18.512 11.9197C18.395 11.8654 18.512 11.8695 18.3448 11.8069C18.3072 12.0534 18.3281 12.0074 18.4075 12.1035C18.5078 12.233 18.5371 12.3124 18.7628 12.3458ZM12.3297 8.92815L12.4007 8.77356C11.8699 8.66493 12.2126 9.36685 12.3756 9.19555C12.4927 9.07021 12.3547 8.9574 12.3338 8.92815H12.3297ZM12.1416 9.71363C12.2544 9.85151 12.3171 9.81391 12.4007 9.71781C12.3631 9.63425 12.3715 9.65096 12.3046 9.58829C12.2001 9.60501 12.1666 9.605 12.1416 9.71363ZM12.7686 8.63151L12.756 8.45603L12.6306 8.44767C12.5721 8.61062 12.6181 8.61062 12.7686 8.63151ZM12.2502 8.35576C12.2586 8.45185 12.2502 8.51452 12.3673 8.47274C12.4425 8.4435 12.4969 8.39336 12.5261 8.30562C12.4342 8.18863 12.2962 8.13849 12.1875 8.25966C12.2126 8.35576 12.1666 8.25966 12.2502 8.35576ZM14.265 10.3947C14.3194 10.2359 14.3027 10.2777 14.194 10.2401C14.1522 10.3236 14.1229 10.378 14.265 10.3947ZM10.5155 8.12178C10.5155 8.12178 10.4862 8.18028 10.5949 8.16356C10.7454 8.14267 10.6911 7.98808 10.5155 8.12178ZM11.7152 8.39336C11.8406 8.33904 11.7946 8.39336 11.8113 8.26384L11.6399 8.23459C11.619 8.1176 11.6232 8.12596 11.502 8.09254L11.4644 8.35576L11.7152 8.39336ZM12.6557 8.20534C12.7268 8.32651 12.7184 8.33904 12.8438 8.25548C12.8856 8.09254 12.6808 8.15521 12.6557 8.20534ZM12.6223 7.85021C12.6432 7.95884 12.6432 7.93377 12.7268 7.89617C12.6975 7.8126 12.731 7.79171 12.6223 7.85021ZM13.5544 11.0966C13.3956 11.0506 13.404 11.0757 13.3705 11.2136C13.4917 11.2303 13.5294 11.1927 13.5544 11.0966ZM13.22 15.6465L13.3496 15.5463C13.6213 15.4919 13.6966 15.3917 13.6966 15.3917C13.7091 15.4502 13.7634 14.9906 14.1605 14.8067C14.7541 14.5728 14.8879 14.6772 15.4982 14.1925C15.5065 14.038 15.3602 14.0588 15.2474 13.9711C15.2474 13.7789 15.4689 13.5867 15.6487 13.616C15.611 13.8541 15.5567 13.7747 15.5149 13.9419C15.7114 14.1006 15.6821 13.9544 15.7782 14.2343C15.9204 14.2594 16.0291 14.2176 16.1754 14.1842C16.1837 13.9544 16.0207 13.8541 15.866 13.7371C15.8827 13.5115 16.004 13.4572 15.9245 13.194C15.866 12.9976 15.5692 13.006 15.4188 12.3751C15.377 12.2121 15.3644 12.0283 15.2348 11.9113C15.1094 11.9406 14.9966 12.2372 14.8335 12.1035C14.729 11.9322 14.8544 11.7317 14.612 11.6606L14.4741 11.4601L14.4532 11.3849L14.0268 11.318C13.776 12.1662 14.0644 11.8862 14.0017 12.2414C13.9724 12.4127 13.8596 12.4754 13.7551 12.5673C13.5461 12.7511 13.7133 12.7929 13.6339 13.0185C13.2576 13.0143 13.5921 12.5547 13.3287 12.4085L13.1866 12.2163C13.1239 12.0325 12.9901 11.7567 12.7686 11.6941L12.3589 12.0283C12.1708 11.8988 12.221 11.7358 12.2586 11.5019C12.2962 11.2512 12.4467 11.2177 12.5638 11.1217C12.8271 10.9044 12.8104 10.8125 13.1448 10.7582C13.1531 10.8584 13.1866 10.9671 13.2994 11.0172L13.4416 10.871C13.5921 10.9002 13.5712 10.988 13.7175 10.9295C13.6715 10.7958 13.5335 10.7331 13.4541 10.6662C13.4792 10.5033 13.5795 10.4908 13.6297 10.378C13.6464 10.3403 13.7007 10.0145 13.7091 9.96014C13.6088 9.85987 13.5168 9.85569 13.5461 9.69274C13.7384 9.68439 13.6966 9.69274 13.8387 9.75959C13.9892 9.83062 13.9432 9.75124 14.1313 9.75959C14.2316 9.95596 14.3654 10.1816 14.4699 10.332C14.6454 10.7122 14.5786 10.5284 14.3612 10.7331L14.1522 10.6997C14.0477 10.8083 14.0477 10.7916 13.9808 10.942C14.3236 10.9086 14.3445 10.942 14.52 11.1551C14.5995 11.2512 14.5702 11.3055 14.6914 11.3765C14.8335 11.4643 15.5358 11.6397 15.2307 11.2804C15.2014 11.1593 14.7917 10.7414 15.168 10.779C15.2557 10.9545 15.1972 11.0214 15.3435 11.0757L15.4898 10.7498C15.1512 10.3821 14.8043 10.3529 14.9506 9.99775C14.6998 9.8348 14.8377 9.86822 14.6496 9.83062C14.6204 9.25405 14.5326 9.98939 14.3027 9.38357C14.265 9.28329 14.2525 9.24151 14.1773 9.19555C14.0268 9.34178 14.2274 9.44206 13.8011 9.37939C13.8303 8.85713 13.8345 9.07857 13.7676 8.99918C13.6339 9.01172 13.6255 9.02843 13.5335 9.08692C13.521 9.1872 13.5043 9.32089 13.5335 9.38774C13.4081 9.55905 13.3287 9.34178 13.3036 9.25822C13.2284 8.99083 13.3454 9.09528 13.4123 8.9574C13.2451 8.90726 13.2242 8.90726 13.149 9.02007C13.0988 9.09946 13.0403 9.20391 13.0361 9.32925C13.1782 9.42535 13.174 9.33343 13.103 9.49637L13.2744 9.63007C13.4123 9.7011 13.4583 9.72199 13.3872 9.93925C13.3454 10.0646 13.266 10.1649 13.1072 10.1147L13.0737 9.89747L12.8856 9.90583C12.8396 9.68857 12.8396 9.75542 12.6808 9.65096C12.6808 9.63007 12.7937 9.46295 12.6181 9.30418C12.5303 9.2248 12.3756 9.24569 12.5136 9.52144C12.5596 9.61336 12.5972 9.6635 12.6265 9.74288C12.5888 9.83898 12.4551 10.0228 12.3297 10.0145L12.3004 9.87658C12.1039 9.84316 12.2252 9.87658 12.175 9.90165C12.0454 9.94343 11.8155 9.91836 11.665 9.85569C11.3223 9.71363 11.3682 9.75542 11.3097 10.0688C11.0798 10.0145 11.2094 9.91836 11.0129 9.8724C10.8834 9.83898 10.6994 9.83062 10.5573 9.80137L10.6158 9.60083C10.5071 9.5674 10.4194 9.57158 10.3274 9.53816C10.0432 9.4337 10.3274 9.45459 9.94701 9.43788C9.56244 9.40028 9.65022 9.37103 9.56244 9.33343C9.39524 9.48802 9.49138 9.37103 9.31164 9.42535C9.05665 9.50055 9.31164 9.68439 8.94379 9.51309C8.83929 9.58829 8.91035 9.57994 8.80166 9.63007C8.55922 9.51726 8.88109 9.45459 7.90294 9.38357C7.38461 9.34596 7.46821 9.24151 7.07946 9.48802L6.59457 9.84316C6.63637 9.98939 6.76178 9.9309 6.69908 10.1732C6.61547 10.1941 6.43991 10.2025 6.38975 10.2693C6.28107 10.4323 6.55277 10.4364 6.65727 10.449C6.60293 10.8083 6.15984 10.6077 6.18492 11.0882C6.22672 11.1969 6.26017 11.0423 6.34795 11.293C6.36467 11.3473 6.54441 11.293 6.59457 11.293V11.4935C6.52769 11.5269 6.49843 11.4935 6.45663 11.6732C6.57367 11.6439 6.59875 11.6063 6.64055 11.5102C6.82448 11.4058 6.91644 11.0381 7.21741 10.942L7.23413 11.0339C7.16307 11.0673 7.17979 11.0423 7.13381 11.1133C7.13799 11.1217 7.10454 11.1593 7.19233 11.1634C7.38879 11.1801 7.28847 10.9921 7.46821 10.9796L8.00327 11.1676C8.08269 11.2177 8.03253 11.2094 8.09941 11.2512C8.31677 11.389 8.22063 11.2219 8.24989 11.5311C8.27497 11.7776 8.63028 11.8821 8.79748 12.2873C8.89363 12.5255 8.87273 12.4461 8.80166 12.6968C9.09845 12.9308 9.14861 13.2817 8.93961 13.687C8.70552 14.1549 9.07755 14.2427 9.09845 14.7106C9.11099 14.9028 9.40778 14.907 9.4872 15.1828C9.5499 15.4042 9.60842 15.5713 9.6962 15.7886C9.73801 15.8889 9.74637 15.8554 9.81325 15.9515C9.94701 16.1479 9.82579 16.244 10.0181 16.2941C10.039 16.1771 9.82161 15.8095 9.72965 15.6298C9.66694 15.5003 9.68784 15.5003 9.71293 15.3206C9.98463 15.4084 9.78399 15.4251 10.0264 15.8721C10.1727 16.0602 10.4403 16.315 10.4821 16.5365C10.5573 16.9626 11.0798 17.3721 11.3682 17.2927C11.6567 17.2133 11.5731 17.393 11.9869 17.5893C12.4592 17.815 12.0789 17.7815 12.501 18.2035C12.802 18.5085 12.8313 18.262 13.0779 18.3957C13.1448 18.4709 13.1699 18.6046 13.103 18.7383C12.9943 18.9472 12.8522 18.7592 12.7017 19.223C12.6683 19.3232 12.5805 19.482 12.5512 19.5823C12.6181 19.7578 12.7226 19.787 12.7686 20.0586C12.9901 21.2828 13.9975 19.8915 12.7686 22.5362C12.5763 22.9457 12.4676 23.2256 12.5512 23.6768C12.6306 23.823 12.6306 23.9191 12.8104 23.8607C12.8731 23.7646 12.7811 23.6894 12.7978 23.518C13.0486 23.4428 13.057 23.447 13.1155 23.1546C13.2075 23.0835 13.2576 23.071 13.3496 22.9791C13.4667 22.8663 13.4374 22.8746 13.5795 22.7785C13.7133 22.6866 13.6088 22.6365 13.8094 22.6072C14.0059 22.578 13.9975 22.6532 14.1187 22.5111C14.2233 22.39 14.2023 22.3607 14.3278 22.3148C14.4532 22.2688 14.4908 22.2939 14.6162 22.1936C15.3937 21.5794 14.9589 21.4959 15.4898 21.3914C16.1879 21.2577 16.0249 20.7563 16.2757 20.4806C16.422 20.3218 16.6184 20.2759 16.6853 20.0335C16.6059 19.787 16.4303 19.7327 16.1628 19.6742C15.703 19.5781 16.3175 19.5405 15.4271 19.4737C15.4856 19.2689 15.6236 19.2856 15.4522 19.0308C15.2975 19.1311 15.331 19.3065 15.0091 19.1352L15.0007 18.684C14.8544 18.4918 14.729 18.6255 14.7708 18.2787C14.4741 18.2662 14.6078 18.1617 13.9265 18.0782C13.4792 18.0239 13.4834 18.0322 13.2451 18.3205C13.1615 18.3121 13.1113 18.2787 13.0528 18.262C12.9023 18.2202 12.7059 18.262 12.5261 18.028L12.639 17.6771C12.4551 17.4932 11.9953 17.4097 12.2377 17.0629C12.3631 16.8832 12.3338 16.9668 12.2753 16.7788C12.1207 16.7537 12.058 16.7955 11.8949 16.971C11.7821 17.113 11.3432 17.2217 11.2805 16.7621C11.247 16.5365 11.2679 16.0184 11.4895 15.8972C11.8949 15.6758 11.9284 15.9056 12.1959 15.8889C12.5303 15.868 12.3589 15.7802 12.7811 16.0058C13.1322 16.1939 12.8689 16.3693 13.057 16.4529C13.2033 16.2607 13.0068 15.7384 13.2033 15.6591L13.22 15.6465ZM13.7509 17.0754C13.7969 17.1548 13.7509 17.1339 13.8094 17.1882C13.8554 17.23 13.9014 17.1841 14.0017 17.1673C14.148 17.159 13.9223 17.0545 13.8679 17.0629C13.7927 17.0545 13.7509 17.0169 13.7509 17.0754ZM13.2409 17.1841C13.2618 17.2133 13.3078 17.2258 13.358 17.1966C13.3329 17.1506 13.2409 17.1423 13.2409 17.1841ZM12.7602 16.7704C12.8856 16.7537 12.94 16.7412 13.0277 16.7997C13.0528 16.8289 13.1657 16.8331 13.2075 16.854C13.2451 16.9041 13.22 16.9083 13.2827 16.925C13.3036 16.9292 13.3203 16.9376 13.3412 16.9543C13.3329 16.9668 13.3078 17.0002 13.3412 16.996C13.7216 16.9752 13.5628 17.0169 13.3621 16.8749C13.2576 16.8247 13.266 16.7746 13.0486 16.7161C13.011 16.7161 12.8062 16.6743 12.7602 16.7704ZM14.3528 17.1924C14.3779 17.1924 14.3863 17.1841 14.4114 17.1799L14.4239 17.1465C14.3779 17.1465 14.2023 17.1799 14.3528 17.1924ZM6.60293 8.96993C6.82866 8.80281 7.05438 8.64404 7.33027 8.46439C8.42128 7.75411 10.2731 7.23185 11.5814 7.21096C11.9535 7.20678 13.0319 7.30288 13.4416 7.44911C13.5168 7.39479 13.5628 7.42822 13.6631 7.44911C13.7258 7.62459 13.7718 7.57863 13.8052 7.67055C13.7509 7.74993 13.7467 7.70815 13.6757 7.77918C13.7049 7.88781 13.7091 7.82096 13.7175 7.94212C13.521 8.12178 13.6548 7.95466 13.6297 8.21788C13.4081 8.18863 13.4249 8.20117 13.2242 8.28055C13.3203 8.35576 13.7049 8.37665 13.9223 8.4226C13.9683 8.4811 13.847 8.46439 14.0184 8.4811C14.0853 8.38918 14.1104 8.37247 13.9933 8.34322L13.985 8.25548C14.0895 8.26384 14.2191 8.2137 14.2483 8.08C14.1146 7.98808 14.0978 8.09254 14.1104 7.93795C14.2065 7.88781 14.2358 7.95048 14.3612 7.93377C14.4741 7.91706 14.6496 7.76247 15.1178 7.86692C15.1303 8.03404 15.1094 7.96719 15.0551 8.04658C14.9798 8.14685 15.0175 8.10507 14.9798 8.24295L14.6789 8.20534C14.6789 8.40171 14.8377 8.33069 14.7917 8.51452L14.7667 8.61062C14.7416 8.7861 15.3143 8.80699 15.4982 8.89891C15.6863 8.99918 15.8284 9.24151 15.8618 9.42535C15.8911 9.51726 15.9329 9.59665 16.0291 9.64261C16.0291 9.71363 16.004 9.83062 16.0082 9.93507C16.2339 9.98521 16.2966 9.9685 16.2924 10.0813C16.2882 10.3027 16.0374 10.0521 16.1628 10.3905C16.7731 10.4323 15.9622 10.5701 16.2966 11.1969L16.4011 11.3264L16.3635 11.5771C16.4805 11.6773 16.5892 11.8612 16.6226 12.0199L16.7146 12.1077C16.7815 12.1829 16.7522 12.2706 16.9069 12.2999C17.003 12.162 17.0323 12.0032 17.1284 11.8361C17.2329 11.6523 17.2455 11.481 17.4336 11.481C17.5381 11.4392 17.5757 11.4183 17.6342 11.3306C17.7095 11.1551 17.7763 11.2303 17.9477 11.1843C18.0815 11.1509 18.1567 11.0715 18.2612 11.0214C18.2361 10.8626 18.1902 10.8626 18.1107 10.7456C17.9853 10.5701 17.4252 9.36268 18.4702 10.3654C18.8088 10.6913 19.5571 11.9949 19.6908 12.396C19.7744 12.6508 19.8497 12.6258 19.7953 12.9851C19.741 13.3528 19.7661 13.2734 19.8037 13.6034C19.8371 13.7455 19.9416 13.7873 20.0043 13.8499C19.9625 14.343 19.8956 14.2343 19.8371 14.4558C19.7201 14.8945 19.7744 14.6521 19.5027 14.8443C19.5612 15.1284 19.6908 14.9613 19.5947 15.4502C19.4317 15.4418 19.4484 15.4042 19.2979 15.3666C19.1181 15.5379 19.2017 15.7384 19.2268 15.8429C19.277 16.0309 19.2603 16.1312 19.4985 16.1437C19.5905 16.0226 19.6198 15.9599 19.6825 15.7844C19.7702 15.5463 19.7452 15.5463 20.0127 15.6006C20.0628 15.7593 20.1297 15.893 20.1548 16.0434C20.3805 16.1186 20.3805 16.056 20.3722 16.3401C20.3722 16.503 20.3889 16.6827 20.3638 16.8289C20.1381 16.8164 20.2008 16.8415 20.0336 16.7621L19.9458 16.2273C19.7661 16.1939 19.6825 16.2523 19.5153 16.2774C19.3104 16.3108 19.2937 16.3192 19.1892 16.5072C19.0471 16.7579 18.8799 17.0211 18.7085 17.2091C18.5246 17.4139 18.5162 17.8526 18.4242 18.145C18.3532 18.3748 18.4326 18.7592 18.6124 18.9389C18.9008 19.0684 19.0387 18.9765 19.1725 18.8344C19.6783 18.8762 19.3021 19.2271 19.3397 19.4945C19.3815 19.7578 19.3104 19.7035 19.2519 19.8664C19.2185 19.9583 19.2352 20.0043 19.2017 20.092C19.1725 20.1756 19.1265 20.2006 19.0889 20.2717C18.9468 20.5265 19.2394 20.2508 18.7921 20.9987C18.6458 21.241 18.5371 21.4039 18.3824 21.6588C18.1693 22.0181 17.3374 22.8036 17.0114 23.0794C19.3271 21.5 20.8445 18.8428 20.8445 15.8304C20.8445 10.988 16.9152 7.06055 12.0705 7.06055C10.0014 7.06055 8.09941 7.775 6.59875 8.97411L6.60293 8.96993Z" fill="white"/>
</g>
<defs>
<clipPath id="clip0_246_847">
<rect width="83" height="32" fill="white" transform="translate(0.5)"/>
</clipPath>
</defs>
</svg>
